<?xml version="1.0" standalone="no"?>
<!DOCTYPE svg PUBLIC "-//W3C//DTD SVG 20010904//EN"
 "http://www.w3.org/TR/2001/REC-SVG-20010904/DTD/svg10.dtd">
<svg version="1.0" xmlns="http://www.w3.org/2000/svg"
 width="256.000000pt" height="256.000000pt" viewBox="0 0 256.000000 256.000000"
 preserveAspectRatio="xMidYMid meet">
<metadata>
Created by potrace 1.11, written by Peter Selinger 2001-2013
</metadata>
<g transform="translate(0.000000,256.000000) scale(0.100000,-0.100000)"
fill="#000000" stroke="none">
<path d="M1010 2541 c-503 -112 -879 -495 -989 -1006 -16 -74 -19 -122 -17
-270 2 -99 6 -193 10 -210 34 -151 89 -302 141 -389 19 -32 35 -60 35 -63 0
-8 86 -121 139 -181 165 -187 428 -341 672 -391 30 -6 65 -14 79 -17 57 -13
318 -12 399 2 270 44 509 164 698 352 176 173 285 363 350 611 36 133 42 409
14 546 -21 100 -45 184 -66 230 -7 17 -20 47 -28 67 -9 20 -34 68 -56 106
-175 299 -455 511 -801 604 -113 30 -460 36 -580 9z m446 -83 c5 -3 25 -9 44
-12 289 -47 581 -237 756 -493 159 -232 229 -511 201 -797 -6 -59 -12 -89 -32
-176 -11 -48 -58 -166 -93 -235 -171 -338 -509 -579 -892 -634 -93 -14 -301
-6 -395 14 -361 77 -658 304 -820 625 -91 182 -128 340 -127 545 3 580 436
1076 1012 1160 25 4 46 8 48 10 6 5 288 -1 298 -7z"/>
</g>
</svg>
