<?xml version="1.0" encoding="UTF-8" standalone="no"?>
<svg
   xmlns:dc="http://purl.org/dc/elements/1.1/"
   xmlns:cc="http://creativecommons.org/ns#"
   xmlns:rdf="http://www.w3.org/1999/02/22-rdf-syntax-ns#"
   xmlns:svg="http://www.w3.org/2000/svg"
   xmlns="http://www.w3.org/2000/svg"
   xmlns:sodipodi="http://sodipodi.sourceforge.net/DTD/sodipodi-0.dtd"
   xmlns:inkscape="http://www.inkscape.org/namespaces/inkscape"
   version="1.1"
   width="18"
   height="28"
   viewBox="7 2 18 28"
   id="svg4"
   sodipodi:docname="ffff00.svg"
   inkscape:version="0.92.1 r15371">
  <metadata
     id="metadata10">
    <rdf:RDF>
      <cc:Work
         rdf:about="">
        <dc:format>image/svg+xml</dc:format>
        <dc:type
           rdf:resource="http://purl.org/dc/dcmitype/StillImage" />
        <dc:title />
      </cc:Work>
    </rdf:RDF>
  </metadata>
  <defs
     id="defs8" />
  <sodipodi:namedview
     pagecolor="#ffffff"
     bordercolor="#666666"
     borderopacity="1"
     objecttolerance="10"
     gridtolerance="10"
     guidetolerance="10"
     inkscape:pageopacity="0"
     inkscape:pageshadow="2"
     inkscape:window-width="1366"
     inkscape:window-height="692"
     id="namedview6"
     showgrid="false"
     inkscape:zoom="45.254834"
     inkscape:cx="-5.1312372"
     inkscape:cy="18.028447"
     inkscape:window-x="-5"
     inkscape:window-y="-5"
     inkscape:window-maximized="1"
     inkscape:current-layer="svg4" />
  <!-- Exported by Scratch - http://scratch.mit.edu/ -->
  <g
     id="g3804"
     style="fill:#d1d100;fill-opacity:1">
    <path
       style="fill:#d1d100;stroke:#ffa500;stroke-width:1.75725389;stroke-linecap:round;fill-opacity:1"
       inkscape:connector-curvature="0"
       d="M 7.9180985,17.234021 7.9168809,4.0409894 18.119698,12.634409 Z"
       id="ID0.06526145013049245" />
    <path
       style="fill:#d1d100;stroke:#ffa500;stroke-width:0.94632077;fill-opacity:1"
       inkscape:connector-curvature="0"
       d="m 14.032711,15.641159 -1.420783,0.640591 2.478315,5.311683 1.420783,-0.64059 z"
       id="ID0.6402791948057711" />
    <path
       inkscape:connector-curvature="0"
       id="path3682"
       d="m 13.403709,18.930086 c -1.136615,-2.44687 -1.383711,-2.895838 -1.562529,-2.839083 -0.116824,0.03708 -1.252973,0.539293 -2.5247743,1.116032 l -2.312367,1.048617 V 10.128793 2.0019336 l 0.3281825,0.2774959 c 0.1805003,0.1526227 2.9834668,2.5138528 6.2288138,5.2471782 3.245347,2.7333253 5.900368,5.0023923 5.900046,5.0423723 -3.56e-4,0.03998 -1.174897,0.600154 -2.610169,1.244831 -1.435272,0.644677 -2.609585,1.18392 -2.609585,1.198317 0,0.0144 0.485746,1.061935 1.079437,2.327861 0.59369,1.265925 1.20613,2.585132 1.360977,2.931571 l 0.281541,0.629891 -1.016859,0.467567 c -0.559272,0.257162 -1.056399,0.467568 -1.104726,0.467568 -0.04833,0 -0.695422,-1.307925 -1.437988,-2.9065 z"
       style="fill:#d1d100;stroke-width:0.11864407;fill-opacity:1" />
    <path
       transform="translate(7,2)"
       inkscape:connector-curvature="0"
       id="path3698"
       d="M 8.6294978,10.936031 V 9.2739217 l 1.1181641,5.75e-5 1.1181641,5.76e-5 0.939453,0.7913032 c 0.516699,0.435217 0.93995,0.792638 0.940557,0.794269 6.06e-4,0.0016 -0.865001,0.393467 -1.923573,0.870748 L 8.8975861,12.59814 H 8.763542 8.6294978 Z"
       style="fill:#d1d100;stroke-width:0.00390625;fill-opacity:1" />
    <path
       transform="translate(7,2)"
       inkscape:connector-curvature="0"
       id="path3700"
       d="M 8.6294978,10.936031 V 9.2739217 l 1.1181641,4.2e-6 1.1181641,4.1e-6 0.0918,0.077301 c 0.05049,0.042515 0.471484,0.3969635 0.935547,0.787662 0.464062,0.390699 0.846282,0.712706 0.849377,0.715571 0.0031,0.0029 0.0046,0.0062 0.0034,0.0074 -0.0022,0.0022 -0.379675,0.172565 -2.692077,1.215198 L 8.8982333,12.59814 H 8.7638656 8.6294978 Z"
       style="fill:#d1d100;stroke-width:0.00390625;fill-opacity:1" />
    <path
       transform="translate(7,2)"
       inkscape:connector-curvature="0"
       id="path3702"
       d="M 5.1016389,11.063521 V 7.7393024 l 1.9707031,3.558e-4 1.9707031,3.558e-4 0.9140625,0.7698737 c 2.2515094,1.8963453 2.7640164,2.3278263 2.7781154,2.3389013 0.01404,0.01103 0.0014,0.018 -0.186215,0.102526 -0.110702,0.04988 -0.972955,0.438778 -1.916119,0.864213 -0.9431642,0.425434 -1.7289064,0.779386 -1.7460939,0.78656 -0.064779,0.02704 -1.4924343,0.671021 -1.4977723,0.675612 -0.00307,0.0026 0.1052632,0.242056 0.240744,0.532031 0.1354808,0.289975 0.2511935,0.538653 0.2571393,0.552618 l 0.01081,0.02539 H 6.4996777 5.1016389 Z"
       style="fill:#d1d100;stroke-width:0.0078125;fill-opacity:1" />
    <path
       transform="translate(7,2)"
       inkscape:connector-curvature="0"
       id="path3704"
       d="M 6.5892993,17.459702 C 5.8865024,15.953717 5.2653502,14.649649 5.2089612,14.561775 5.1525721,14.4739 5.0811512,14.388766 5.0502477,14.372588 5.0065799,14.349727 4.4422259,14.592136 2.5174974,15.460487 L 0.04093492,16.577802 V 8.613 0.6481978 H 0.3223758 0.60381667 L 4.7711134,4.1560103 c 2.2920128,1.9292969 4.6207718,3.8875 5.1750196,4.3515625 2.361556,1.9772912 2.784107,2.3387612 2.760426,2.3613982 -0.02157,0.02062 -2.297469,1.049288 -4.5718741,2.06641 -0.3867187,0.172941 -0.7140075,0.324254 -0.7273084,0.336249 -0.026805,0.02417 -0.040602,-0.0061 1.5589303,3.425645 0.6254206,1.341837 1.1366802,2.452774 1.1361322,2.46875 -5.47e-4,0.01598 -0.50372,0.254674 -1.1181613,0.53044 l -1.1171659,0.501392 z"
       style="fill:#d1d100;stroke-width:0.03125;fill-opacity:1" />
    <path
       transform="translate(7,2)"
       inkscape:connector-curvature="0"
       id="path3706"
       d="M 6.8232074,17.963275 C 5.521228,15.172166 5.1922643,14.492386 5.1064743,14.415767 c -0.06098,-0.05446 -0.079484,-0.05647 -0.1838594,-0.01992 -0.1106634,0.03874 -4.61656404,2.056722 -4.79574248,2.147784 l -0.0859375,0.04368 V 8.6177503 0.6481978 H 0.32385417 0.60677342 L 4.7560112,4.1403853 c 2.2820809,1.9207031 4.6108359,3.8789062 5.1750115,4.3515625 2.3756843,1.9903062 2.7999633,2.3536802 2.7758913,2.3774162 -0.02163,0.02133 -2.244996,1.027007 -4.6034791,2.082258 -0.3695312,0.165339 -0.6820631,0.309192 -0.6945153,0.319674 -0.025654,0.02159 0.057212,0.203653 1.5873256,3.487381 0.6089544,1.306856 1.1068458,2.389669 1.1064258,2.40625 -4.18e-4,0.01658 -0.1867473,0.11351 -0.414062,0.2154 -0.2273144,0.10189 -0.7302391,0.32805 -1.1176103,0.502577 l -0.7043113,0.317324 z"
       style="fill:#d1d100;stroke-width:0.03125;fill-opacity:1" />
    <path
       transform="translate(7,2)"
       inkscape:connector-curvature="0"
       id="path3708"
       d="M 7.4627724,19.340158 C 6.1220771,16.458584 5.2751768,14.674186 5.1802834,14.53101 5.120478,14.440776 5.0508637,14.366948 5.0255849,14.366948 c -0.057166,0 -1.5113044,0.646057 -4.78933748,2.127847 l -0.1953125,0.08829 V 8.614509 0.64593455 l 0.29425066,0.008944 0.29425069,0.008944 L 4.624248,4.0263394 c 2.1971466,1.849384 4.4869994,3.7752059 5.0885619,4.2796038 2.5364191,2.1267358 3.0184551,2.5394148 2.9942561,2.5634328 -0.026,0.02581 -1.93346,0.891985 -3.7539627,1.704672 -0.5553387,0.247908 -1.1349459,0.510149 -1.2880159,0.582758 l -0.2783094,0.132017 0.2382672,0.515625 c 0.1310469,0.283594 0.7358025,1.584375 1.3439019,2.890625 0.6080991,1.30625 1.1124029,2.403125 1.1206749,2.4375 0.01326,0.05508 -0.091675,0.110548 -0.8840105,0.467289 -0.4944785,0.222634 -0.9984735,0.449641 -1.1199891,0.50446 l -0.2209378,0.09967 z"
       style="fill:#d1d100;stroke-width:0.03125;fill-opacity:1" />
    <path
       transform="translate(7,2)"
       inkscape:connector-curvature="0"
       id="path3710"
       d="M 7.5408487,19.512336 C 6.7129924,17.730502 5.5452252,15.249782 5.3649134,14.889937 5.1391271,14.439341 5.0715871,14.353219 4.969024,14.385131 4.875331,14.414281 3.5165659,15.017682 1.7964634,15.793999 1.0113915,16.148318 0.2952318,16.471222 0.20499742,16.511563 l -0.1640625,0.07335 V 8.6165537 0.6481978 l 0.2890625,8.5977e-4 0.2890625,8.5977e-4 L 4.7468727,4.12562 c 2.2702972,1.9116365 4.5892981,3.8624215 5.1533356,4.3350778 2.2236537,1.8633932 2.8309647,2.3847622 2.8064387,2.4092882 -0.02375,0.02375 -2.1641,0.995381 -4.333293,1.967131 -0.5132632,0.229931 -0.9397807,0.43519 -0.9478169,0.456132 -0.015236,0.0397 0.2552375,0.633622 1.7691144,3.884708 0.4998309,1.073399 0.9086405,1.966368 0.9084655,1.984375 -1.87e-4,0.01801 -0.05291,0.05589 -0.1171874,0.08419 -0.064278,0.0283 -0.5106197,0.23031 -0.9918697,0.448919 -0.48125,0.218609 -0.9327303,0.422601 -1.0032897,0.453316 l -0.12829,0.05584 z"
       style="fill:#d1d100;stroke-width:0.03125;fill-opacity:1" />
    <path
       transform="translate(7,2)"
       inkscape:connector-curvature="0"
       id="path3712"
       d="M 7.0827936,18.545049 C 5.5345007,15.22583 5.3556394,14.847587 5.2208519,14.607547 l -0.042784,-0.07619 1.3950986,0.002 1.3950985,0.002 1.0841789,2.324168 c 1.0603441,2.273075 1.0837991,2.324365 1.0669211,2.333141 -0.01726,0.009 -2.236874,1.010071 -2.2516331,1.015539 -0.0043,0.0016 -0.357519,-0.746805 -0.7849381,-1.663102 z"
       style="fill:#d1d100;stroke-width:0.0078125;fill-opacity:1" />
    <path
       transform="translate(7,2)"
       inkscape:connector-curvature="0"
       id="path3714"
       d="M 6.9384496,18.23643 C 5.4921526,15.137242 5.3084088,14.750126 5.1956118,14.564578 l -0.020198,-0.03322 1.3967543,0.002 1.3967544,0.002 0.08374,0.179687 c 0.046057,0.09883 0.5338499,1.144672 1.0839839,2.324098 0.9999616,2.143807 1.0002386,2.144413 0.9818966,2.154023 -0.02091,0.01096 -2.2532929,1.017997 -2.2565193,1.017928 -0.00116,-2.3e-5 -0.4167667,-0.888598 -0.9235749,-1.974609 z"
       style="fill:#d1d100;stroke-width:0.0078125;fill-opacity:1" />
    <path
       transform="translate(7,2)"
       inkscape:connector-curvature="0"
       id="path3716"
       d="M 7.6090081,19.677292 7.3736566,19.172305 v -1.157058 -1.157058 l 0.8405402,9.86e-4 0.8405402,9.85e-4 0.5422006,1.161986 c 0.2982104,0.639092 0.5409144,1.163197 0.5393424,1.164678 -0.0023,0.0021 -0.7543301,0.341669 -2.1197674,0.957 l -0.08566,0.0386 -0.043247,-7.3e-5 -0.043247,-7.4e-5 z"
       style="fill:#d1d100;stroke-width:0.00390625;fill-opacity:1" />
    <path
       transform="translate(7,2)"
       inkscape:connector-curvature="0"
       id="path3718"
       d="M 0.32991185,0.45450227 0.10139622,0.26105218 0.10038285,0.45270465 0.09936948,0.64435711 H 0.07010941 0.04084935 v -0.2421875 c 0,-0.13320312 9.512e-4,-0.2421875 0.0021138,-0.2421875 0.001761,0 0.55831371,0.46679914 0.57587172,0.48300262 0.004841,0.004468 6.4171e-4,0.005255 -0.0273438,0.005123 l -0.0330636,-1.555e-4 z"
       style="fill:#d1d100;stroke-width:0.00390625;fill-opacity:1" />
    <path
       inkscape:connector-curvature="0"
       d="m 7.0718801,2.704708 c 4.04e-4,-0.013858 3.553e-4,-0.027727 2.969e-4,-0.04159 -2.65e-5,-0.01171 -1.79e-4,-0.023421 -1.599e-4,-0.035132 1.2e-6,-0.00946 -1.132e-4,-0.018928 -5.57e-5,-0.028391 6e-7,-0.010489 6.01e-5,-0.020977 1.064e-4,-0.031465 3.25e-5,-0.011051 -2.41e-5,-0.022101 -8.95e-5,-0.033151 -5.21e-5,-0.00838 -7.01e-5,-0.016754 -7.96e-5,-0.025132 -2.985e-4,-0.00942 2.757e-4,-0.018726 0.00165,-0.028039 0.00144,-0.00978 0.00187,-0.019658 0.00214,-0.029524 1.662e-4,-0.013082 0.00314,-0.02598 0.00593,-0.038704 0.00619,-0.021994 0.011173,-0.044207 0.01556,-0.066616 5.466e-4,-0.00279 0.00109,-0.00558 0.00164,-0.00837 0,0 0.051219,-0.024787 0.051219,-0.024787 v 0 c -6.225e-4,0.00283 -0.00125,0.00565 -0.00187,0.00848 -0.00492,0.022286 -0.00943,0.044635 -0.015541,0.066643 -0.00257,0.012265 -0.00481,0.024776 -0.00545,0.037296 -2.797e-4,0.010059 -7.82e-4,0.020114 -0.00188,0.030122 -0.00122,0.00909 -0.00273,0.018021 -0.00188,0.02725 -9.5e-6,0.0084 -2.75e-5,0.016809 -7.96e-5,0.025213 -6.51e-5,0.011081 -1.219e-4,0.022161 -8.95e-5,0.033242 4.63e-5,0.010452 1.059e-4,0.020904 1.065e-4,0.031356 5.79e-5,0.00948 -5.74e-5,0.018965 -5.57e-5,0.028448 1.92e-5,0.011765 -1.337e-4,0.02353 -1.6e-4,0.035295 -5.77e-5,0.013762 -1.113e-4,0.027531 2.969e-4,0.041287 0,0 -0.051552,0.026267 -0.051552,0.026267 z"
       id="path3722"
       style="fill:#d1d100;fill-opacity:1" />
    <path
       inkscape:connector-curvature="0"
       d="m 7.0986578,2.4018146 c -0.00277,-0.01101 -0.00447,-0.022232 -0.00704,-0.033284 -0.00176,-0.0087 -0.00344,-0.017395 -0.00536,-0.026065 -0.00145,-0.00787 -0.00364,-0.015592 -0.00606,-0.023212 -0.00203,-0.0079 -0.00449,-0.015685 -0.00623,-0.023657 -0.00132,-0.00769 -0.00252,-0.015543 -0.00101,-0.023263 0.00743,-0.02317 0.042055,-0.04332 0.062456,-0.028805 0.00552,0.00253 0.00973,0.00641 0.01354,0.011086 0.00426,0.00384 0.00654,0.00921 0.010154,0.013582 0.00327,0.00427 0.0068,0.00847 0.010818,0.012073 0.00434,0.00505 0.00919,0.00952 0.013119,0.014921 0.00548,0.00639 0.00881,0.013906 0.012457,0.021367 0.00231,0.00571 0.00625,0.010428 0.00992,0.01529 0.00338,0.00544 0.00762,0.010242 0.01153,0.015306 0.00422,0.00462 0.00898,0.0087 0.013221,0.013294 0.00467,0.00389 0.00932,0.00799 0.014809,0.010665 0.00501,0.00311 0.010186,0.00628 0.015738,0.00835 0.00491,0.00318 0.010131,0.0059 0.014892,0.00928 0.00477,0.00369 0.01016,0.00636 0.01517,0.00974 0,0 -0.048674,0.031318 -0.048674,0.031318 v 0 c -0.00522,-0.00311 -0.010418,-0.00619 -0.015362,-0.00974 -0.00474,-0.00286 -0.00927,-0.00608 -0.014297,-0.00844 -0.0055,-0.00264 -0.010862,-0.0056 -0.016021,-0.00886 -0.00566,-0.00347 -0.010988,-0.00758 -0.015806,-0.012149 -0.00447,-0.00461 -0.00918,-0.00897 -0.013438,-0.013784 -0.00399,-0.00502 -0.0081,-0.00995 -0.011587,-0.01535 -0.00397,-0.00512 -0.008,-0.010293 -0.010419,-0.016374 -0.00341,-0.00719 -0.00647,-0.014397 -0.011928,-0.0204 -0.00383,-0.00504 -0.00854,-0.00926 -0.01274,-0.013978 -0.00402,-0.004 -0.00788,-0.00821 -0.011238,-0.012775 -0.00341,-0.00445 -0.00596,-0.00954 -0.010061,-0.013437 -0.00357,-0.00407 -0.00758,-0.00703 -0.012509,-0.00932 -0.00183,-6.779e-4 -0.00361,-0.00151 -0.00551,-5.623e-4 -5.973e-4,2.986e-4 -0.00223,0.00147 -0.00165,0.00113 0.050915,-0.030637 0.063888,-0.037756 0.046015,-0.027907 -0.0039,0.00594 -0.00117,0.013828 -6.168e-4,0.020447 0.00154,0.00783 0.00409,0.015378 0.00593,0.023137 0.00248,0.00779 0.00491,0.015642 0.00633,0.023702 0.00182,0.0087 0.00372,0.017336 0.00512,0.026116 0.00243,0.010857 0.00388,0.021927 0.00718,0.032568 0,0 -0.050815,0.027986 -0.050815,0.027986 z"
       id="path3724"
       style="fill:#d1d100;fill-opacity:1" />
    <path
       inkscape:connector-curvature="0"
       d="m 7.3081458,2.4083175 c 0.00766,0.00631 0.015327,0.012644 0.023164,0.018737 0.00507,0.0044 0.00962,0.00941 0.015274,0.013076 0.00568,0.00418 0.00968,0.010053 0.014563,0.015039 0.00577,0.00335 0.00874,0.00931 0.012518,0.0145 0.00369,0.00675 0.0089,0.012208 0.014093,0.017767 0.00411,0.00582 0.0093,0.010721 0.01493,0.015043 0.00491,0.00427 0.0093,0.00901 0.014245,0.013258 0.00672,0.00619 0.013715,0.01208 0.020474,0.018219 0.006,0.0056 0.011457,0.012017 0.018503,0.016332 0.00103,6.518e-4 0.00206,0.0013 0.00309,0.00195 0,0 -0.048669,0.031289 -0.048669,0.031289 v 0 c -0.00107,-6.914e-4 -0.00213,-0.00138 -0.0032,-0.00207 -0.00682,-0.00504 -0.012611,-0.011309 -0.018783,-0.017108 -0.00675,-0.0061 -0.013619,-0.012079 -0.020539,-0.017988 -0.00491,-0.00419 -0.00928,-0.00892 -0.014203,-0.0131 -0.0056,-0.00475 -0.011008,-0.00974 -0.015235,-0.015798 -0.00535,-0.00573 -0.010665,-0.011483 -0.014604,-0.018329 -0.0036,-0.00509 -0.00685,-0.010247 -0.012134,-0.013827 -0.00444,-0.00487 -0.00841,-0.010264 -0.013909,-0.014042 -0.0055,-0.00407 -0.010281,-0.00892 -0.01534,-0.013509 -0.00764,-0.00638 -0.015283,-0.012754 -0.023362,-0.018586 0,0 0.049119,-0.030853 0.049119,-0.030853 z"
       id="path3726"
       style="fill:#d1d100;fill-opacity:1" />
    <path
       inkscape:connector-curvature="0"
       d="m 7.4761146,2.5606613 c 0.00714,0.0079 0.01544,0.014583 0.02339,0.02163 0.00646,0.00685 0.013495,0.013062 0.020964,0.018773 0.00577,0.00484 0.010925,0.010419 0.017222,0.014598 0.00522,0.00369 0.00978,0.00816 0.014734,0.012171 0.00445,0.00439 0.00918,0.00846 0.013353,0.01315 0.0051,0.00429 0.010044,0.0088 0.015336,0.012855 0.00442,0.00479 0.010898,0.00657 0.013697,0.01269 -0.055854,0.032441 -0.038635,0.038833 -0.068245,0.016884 -0.00974,-0.00773 -0.019606,-0.015572 -0.030485,-0.021649 -0.00659,-0.0043 -0.012755,-0.00916 -0.018962,-0.013987 -0.00566,-0.00352 -0.01076,-0.0078 -0.015981,-0.011929 -0.00592,-0.00351 -0.011024,-0.00809 -0.016305,-0.012447 -0.00514,-0.0047 -0.010235,-0.00955 -0.014855,-0.014781 -0.00321,-0.00514 -0.00734,-0.00958 -0.010312,-0.014858 -0.00252,-0.00563 -0.00555,-0.010521 -0.00442,-0.016856 0.044059,-0.03094 0.039661,-0.040676 0.063363,-0.021089 0.018142,0.019823 -0.031269,0.047641 -0.052847,0.032864 -0.00607,-0.00384 -0.012757,-0.00628 -0.018641,-0.010408 -0.00616,-0.00309 -0.011743,-0.00699 -0.017438,-0.010819 -0.00463,-0.00377 -0.00935,-0.00745 -0.014228,-0.01093 -0.00516,-0.00478 -0.011474,-0.0079 -0.017088,-0.012132 -0.00657,-0.00548 -0.013823,-0.010132 -0.020006,-0.016068 -0.00579,-0.00494 -0.011955,-0.00918 -0.016914,-0.015022 -0.0046,-0.00536 -0.010474,-0.0093 -0.015553,-0.014135 -0.00573,-0.00429 -0.01093,-0.00923 -0.01571,-0.014549 -0.0054,-0.00477 -0.00933,-0.010873 -0.013968,-0.016314 -0.00403,-0.00567 -0.00789,-0.011503 -0.011284,-0.017584 -0.0025,-0.00546 -0.00641,-0.0085 -0.01194,-0.010399 0,0 0.048207,-0.03207 0.048207,-0.03207 v 0 c 0.00607,0.00315 0.010846,0.00733 0.013919,0.013577 0.00324,0.00575 0.00692,0.011295 0.010704,0.016695 0.00447,0.00548 0.0087,0.011193 0.013865,0.016071 0.00478,0.00515 0.010008,0.00975 0.01551,0.014114 0.00533,0.00483 0.011115,0.00919 0.01579,0.014698 0.00496,0.0055 0.011217,0.00945 0.016577,0.014535 0.00617,0.00558 0.013024,0.010371 0.019572,0.015488 0.00578,0.00401 0.012111,0.00722 0.017272,0.012078 0.00472,0.0036 0.00962,0.00694 0.014171,0.010764 0.00554,0.00395 0.011426,0.00727 0.017253,0.010773 0.00601,0.00367 0.012564,0.00634 0.018613,0.00996 6.861e-4,2.901e-4 0.00135,6.435e-4 0.00206,8.704e-4 5.422e-4,1.734e-4 0.00215,1.59e-5 0.00168,3.24e-4 -0.015958,0.010273 -0.032484,0.019641 -0.048503,0.029819 -3.208e-4,2.038e-4 0.00389,6.082e-4 -1.471e-4,-0.00126 -0.00218,-0.00156 -0.00446,-0.00349 -0.00685,-0.00471 -3.765e-4,-1.92e-4 -8.478e-4,-4.06e-4 -0.00124,-2.541e-4 -4.276e-4,1.646e-4 -0.00126,0.0013 -8.674e-4,0.00107 0.016133,-0.00952 0.032104,-0.019311 0.048156,-0.028966 -0.00591,5.19e-4 5.432e-4,0.00782 0.00122,0.010913 0.00275,0.00489 0.00666,0.00902 0.00963,0.013785 0.00453,0.00496 0.00924,0.00981 0.014381,0.014128 0.00515,0.00442 0.010577,0.00844 0.016204,0.012243 0.00527,0.00403 0.010347,0.00831 0.015921,0.01193 0.00605,0.00461 0.011914,0.00949 0.018355,0.013576 0.010633,0.00677 0.020507,0.014692 0.030684,0.022119 0.028835,0.020374 0.026401,0.00553 -0.032156,0.040854 3.545e-4,2.706e-4 0.00128,0.0012 0.00106,8.118e-4 -0.00202,-0.00373 -0.00967,-0.00563 -0.011917,-0.00961 -0.00539,-0.00442 -0.010914,-0.00873 -0.015902,-0.0136 -0.00411,-0.0044 -0.00864,-0.00833 -0.013002,-0.012476 -0.00466,-0.0041 -0.00934,-0.00816 -0.014354,-0.011824 -0.00609,-0.00456 -0.0114,-0.00998 -0.017193,-0.014895 -0.00751,-0.00584 -0.014432,-0.012325 -0.020993,-0.019209 -0.00794,-0.00699 -0.015911,-0.013937 -0.02367,-0.021121 0,0 0.049119,-0.030853 0.049119,-0.030853 z"
       id="path3728"
       style="fill:#d1d100;fill-opacity:1" />
    <path
       inkscape:connector-curvature="0"
       d="m 7.2780944,2.464665 c -0.00381,-0.010106 -0.00939,-0.019353 -0.015033,-0.028502 -0.00332,-0.00602 -0.00673,-0.012172 -0.011471,-0.017209 -0.00168,-0.00229 -0.00376,-0.00413 -0.00561,-0.00627 0,0 0.049689,-0.030012 0.049689,-0.030012 v 0 c 0.00187,0.00208 0.00388,0.00404 0.00557,0.00627 0.00468,0.00556 0.00845,0.011806 0.011678,0.018307 0.00553,0.00938 0.01095,0.018843 0.015556,0.028729 0,0 -0.050383,0.028687 -0.050382,0.028687 z"
       id="path3730"
       style="fill:#d1d100;fill-opacity:1" />
    <path
       inkscape:connector-curvature="0"
       d="m 7.2271941,2.6732812 c -0.014025,-4.346e-4 -0.028061,-2.537e-4 -0.042091,-1.682e-4 -0.00939,6.62e-5 -0.018782,1.043e-4 -0.028173,1.225e-4 -0.00875,-2.24e-5 -0.017492,-2.93e-5 -0.026238,-1.72e-5 -0.00808,-3.631e-4 -0.016305,8.713e-4 -0.02426,-7.324e-4 -0.00657,-0.00211 -0.013616,-0.00172 -0.020168,-0.00368 -0.00636,-0.00174 -0.012706,-0.00271 -0.018974,-0.00474 -0.00741,-0.0016 -0.012516,-0.00155 -0.017899,-0.00751 -0.00424,-0.00639 -0.00456,-0.014053 -0.00488,-0.021467 -2.57e-5,-0.0013 -4.26e-5,-0.0026 -7.72e-5,-0.0039 -2.62e-5,-9.82e-4 -5.83e-5,-0.00196 -1.051e-4,-0.00294 -3.39e-5,-7.105e-4 -9.131e-4,-0.00181 -2.705e-4,-0.00212 0.052909,-0.025104 0.052138,-0.043283 0.052053,-0.021386 -2.688e-4,0.00489 -0.00139,0.00967 -0.00219,0.014491 0,0 -0.051931,0.025473 -0.051931,0.025473 v 0 c 6.383e-4,-0.00455 0.00134,-0.00909 0.00242,-0.013557 -5.391e-4,-0.02247 -8.607e-4,-0.00249 0.051926,-0.031309 1.11e-4,-6.06e-5 -1.768e-4,1.993e-4 -1.97e-4,3.241e-4 -9.23e-5,5.68e-4 -1.089e-4,0.00115 -1.35e-4,0.00172 -4.5e-5,9.898e-4 -7.23e-5,0.00198 -7.83e-5,0.00297 -7.6e-6,0.00127 2.49e-5,0.00253 3.73e-5,0.00379 1.552e-4,0.00588 -1.349e-4,0.012379 0.00293,0.017601 0.00447,0.00381 0.011039,0.00291 0.016298,0.00516 0.00615,0.00181 0.012568,0.00254 0.018718,0.00441 0.00662,0.00103 0.013246,0.00192 0.019811,0.00326 0.00788,4.409e-4 0.015786,5.34e-5 0.023674,2.021e-4 0.00876,1.21e-5 0.017524,5.1e-6 0.026286,-1.73e-5 0.00928,1.81e-5 0.018557,5.59e-5 0.027836,1.226e-4 0.014184,8.79e-5 0.028374,2.576e-4 0.042554,-1.682e-4 0,0 -0.046883,0.034062 -0.046883,0.034062 z"
       id="path3732"
       style="fill:#d1d100;fill-opacity:1" />
    <path
       transform="translate(7,2)"
       inkscape:connector-curvature="0"
       id="path3736"
       d=""
       style="fill:#d1d100;stroke-width:0.00390625;fill-opacity:1" />
    <path
       transform="translate(7,2)"
       inkscape:connector-curvature="0"
       id="path3738"
       d=""
       style="fill:#d1d100;stroke-width:0.00390625;fill-opacity:1" />
    <path
       transform="translate(7,2)"
       inkscape:connector-curvature="0"
       id="path3740"
       d="m 7.6443327,19.745845 c -1.6460659,-3.537501 -2.3672838,-5.0592 -2.4772502,-5.226754 -0.094878,-0.144565 -0.1428449,-0.159026 -0.3057092,-0.09216 -0.2807164,0.115243 -3.7076169,1.648285 -4.59405092,2.055173 -0.11262091,0.05169 -0.2120578,0.0867 -0.22097086,0.07779 -0.0089131,-0.0089 -0.01892871,-2.993511 -0.022257,-6.6324418 l -0.0060514,-6.6162381 1.95059508,8.142e-4 1.950595,8.142e-4 0.9059806,0.7642069 c 2.7749005,2.340666 3.5576367,3.0024872 4.8724077,4.11973 2.0782025,1.765978 2.7400385,2.3415276 2.7400385,2.3828046 0,0.01032 0.064,0.07207 0.142229,0.137221 0.07823,0.06516 0.139613,0.12821 0.136415,0.140117 -0.0032,0.01191 -0.253645,0.134348 -0.55655,0.272091 -0.871959,0.396516 -2.2361569,1.011948 -3.2776766,1.478661 -1.277713,0.572554 -1.4604559,0.659923 -1.4604559,0.698241 0,0.05402 0.171882,0.431496 1.1489738,2.523299 0.9674713,2.071206 1.5468707,3.323716 1.5468707,3.343927 0,0.01075 -0.07706,0.05457 -0.1712523,0.09738 -1.1044433,0.501956 -2.0478104,0.922858 -2.0682745,0.922802 -0.013984,-4.4e-5 -0.1191064,-0.201398 -0.2336065,-0.447466 z"
       style="fill:#d1d100;stroke-width:0.02209709;fill-opacity:1" />
    <path
       transform="translate(7,2)"
       inkscape:connector-curvature="0"
       id="path3742"
       d="m 0.01909741,1.6709584 c 0,-1.55842196 0.0018924,-1.63699405 0.0386699,-1.60560454 C 0.0970205,0.09885632 3.8894294,3.2883555 3.9063433,3.3020909 c 0.00506,0.00411 -0.8674949,0.00748 -1.9390194,0.00748 H 0.01909741 Z"
       style="fill:#d1d100;stroke-width:0.02209709;fill-opacity:1" />
    <path
       transform="translate(7,2)"
       inkscape:connector-curvature="0"
       id="path3744"
       d="M 0.02356486,1.7073514 C 0.02940521,0.82613246 0.03974597,0.09957287 0.04654431,0.09277453 0.05334266,0.08597618 0.91383058,0.79951572 1.9587397,1.678418 L 3.8585745,3.276422 3.0492146,3.289935 c -0.445148,0.00743 -1.3104144,0.01489 -1.9228143,0.016573 l -1.11345427,0.00306 z"
       style="fill:#d1d100;stroke-width:0.02209709;fill-opacity:1" />
    <path
       transform="translate(7,2)"
       inkscape:connector-curvature="0"
       id="path3746"
       d="m 0.3339809,3.3151393 c 0.17926261,-0.00371 0.47260144,-0.00371 0.65186406,0 0.17926264,0.00371 0.0325932,0.00675 -0.32593203,0.00675 -0.35852524,0 -0.50519465,-0.00304 -0.32593203,-0.00675 z"
       style="fill:#d1d100;stroke-width:0.02209709;fill-opacity:1" />
    <path
       transform="translate(7,2)"
       inkscape:connector-curvature="0"
       id="path3748"
       d="M 0.02326182,1.7077769 C 0.02880077,0.82679201 0.03913285,0.10018599 0.04622199,0.09309685 0.05331113,0.08600771 0.65915915,0.58460259 1.3925509,1.2010855 2.1259427,1.8175683 2.9815049,2.5367165 3.2938004,2.7991928 L 3.8616102,3.276422 3.0507324,3.2899355 c -0.4459828,0.00743 -1.3118771,0.01489 -1.9242096,0.016573 l -1.11333181,0.00306 z"
       style="fill:#d1d100;stroke-width:0.02209709;fill-opacity:1" />
    <path
       transform="translate(7,2)"
       inkscape:connector-curvature="0"
       id="path3750"
       d="m 2.4276799,3.3107721 c 0.6259,-0.00674 1.2175495,-0.00633 1.3147766,8.985e-4 0.097227,0.00723 -0.4148728,0.012747 -1.1379999,0.012253 L 1.2896799,3.3230251 Z"
       style="fill:#d1d100;stroke-width:0.02209709;fill-opacity:1" />
    <path
       transform="translate(7,2)"
       inkscape:connector-curvature="0"
       id="path3752"
       d="m 2.4269572,3.3045539 c 0.3934844,-0.012142 0.7782129,-0.012072 0.9722719,1.768e-4 0.2665758,0.016825 0.155958,0.020239 -0.6511415,0.020092 L 1.7758158,3.3246459 Z"
       style="fill:#d1d100;stroke-width:0.02209709;fill-opacity:1" />
    <path
       transform="translate(7,2)"
       inkscape:connector-curvature="0"
       id="path3754"
       d="m 3.7369323,3.3158376 c 0.033422,-0.00506 0.088112,-0.00506 0.121534,0 0.033422,0.00506 0.00608,0.00921 -0.060767,0.00921 -0.066844,0 -0.094189,-0.00414 -0.060767,-0.00921 z"
       style="fill:#d1d100;stroke-width:0.02209709;fill-opacity:1" />
    <path
       transform="translate(7,2)"
       inkscape:connector-curvature="0"
       id="path3756"
       d="m 1.6867781,3.3121792 c 0.074815,-5.938e-4 0.1961045,-5.935e-4 0.2695313,7e-7 0.073427,5.943e-4 0.012214,0.00108 -0.1360281,0.00108 -0.1482421,-3e-7 -0.2083186,-4.866e-4 -0.1335032,-0.00108 z"
       style="fill:#d1d100;stroke-width:0.00390625;fill-opacity:1" />
    <path
       inkscape:connector-curvature="0"
       d="m 9.3239902,5.3411959 c -0.035747,-0.00112 -0.07152,-0.00106 -0.1072808,-0.00109 -0.042756,-6.37e-5 -0.085513,6.77e-5 -0.1282694,2.707e-4 -0.032414,-4.137e-4 -0.064774,6.882e-4 -0.097154,0.00197 -0.028522,0.00119 -0.057062,0.00184 -0.085605,0.00217 -0.023294,-2.271e-4 -0.046619,8.978e-4 -0.069891,-3.139e-4 -0.017665,-0.00214 -0.035312,-0.0046 -0.05263,-0.00873 -0.00347,-0.00214 -0.013892,-0.00172 -0.016991,-0.00426 -0.0011,-8.973e-4 -0.00326,-0.00292 -0.00208,-0.00371 0.04883,-0.032878 0.034429,-0.031335 0.063522,-0.03123 0.061204,8.036e-4 0.1224123,0.00112 0.1836206,0.00137 0.07799,-2.002e-4 0.1559627,6.91e-5 0.2339423,0.00132 0.052188,9.296e-4 0.1043593,0.00184 0.1565364,1.709e-4 0.017147,-8.693e-4 0.034255,-0.00232 0.051351,-0.00386 0.00928,-8.373e-4 0.018513,-0.00122 0.02757,-0.00343 -0.016269,0.010432 -0.031947,0.021851 -0.048808,0.031296 -0.00229,0.00128 -0.00524,5.241e-4 -0.00787,4.524e-4 -0.0061,-1.664e-4 -0.012177,-8.646e-4 -0.018273,-0.00117 -0.00995,-4.914e-4 -0.019909,-8.892e-4 -0.029869,-0.00121 -0.035214,-0.00114 -0.061223,-0.00148 -0.097288,-0.00215 -0.1610406,-0.00224 -0.3221206,0.00234 -0.4831038,0.00645 -0.1199497,0.00241 -0.2397719,0.0084 -0.3595728,0.014563 -0.024461,0.00134 -0.048935,0.00244 -0.073403,0.00364 -0.00429,2.111e-4 -0.00859,3.665e-4 -0.012879,6.651e-4 -0.00199,1.389e-4 -0.00756,0.00184 -0.00596,6.469e-4 C 8.3600857,5.332712 8.3777437,5.322056 8.3948137,5.310571 8.5160404,5.308731 8.6371721,5.302851 8.7583134,5.29816 8.9250173,5.29049 9.0915747,5.280087 9.2582536,5.271931 c 0.039649,-0.00231 0.079367,-0.00338 0.1190212,-0.00558 0.00699,-3.886e-4 0.013976,-8.672e-4 0.020952,-0.00146 0.00432,-3.701e-4 0.016377,-0.00409 0.01294,-0.00144 -0.014924,0.011502 -0.032386,0.01927 -0.04858,0.028905 -0.00601,-1.612e-4 -0.012051,6.01e-5 -0.018043,-4.837e-4 -0.01638,-0.00149 -0.032652,-0.00403 -0.049024,-0.0056 -0.046196,-0.00444 -0.1552334,-0.012777 -0.1945083,-0.01568 -0.1392154,-0.01029 -0.1518534,-0.01073 -0.2965657,-0.020018 -0.2511845,-0.013772 -0.5035493,-0.025716 -0.7548129,-0.00643 -0.033405,0.00256 -0.066667,0.00673 -0.1,0.010102 -0.086564,0.011027 -0.1727663,0.026666 -0.2565037,0.051536 -0.034628,0.010285 -0.04235,0.013733 -0.074702,0.025785 -0.022317,0.00892 -0.044434,0.018322 -0.066581,0.027647 -0.00415,0.00175 -0.0083,0.00351 -0.012422,0.00534 -0.00215,9.519e-4 -0.0082,0.00447 -0.00637,0.003 0.015653,-0.012576 0.031984,-0.024283 0.047977,-0.036425 0.064942,-0.022388 0.1326173,-0.035751 0.1997319,-0.049771 0.1483127,-0.026334 0.2973604,-0.048617 0.4464539,-0.070071 0.1236089,-0.017635 0.2483027,-0.024921 0.3729752,-0.029406 0.049011,-0.00167 0.098303,-0.00212 0.1471752,0.00272 0.021384,0.00212 0.028124,0.00368 0.048472,0.00727 0.022156,0.00518 0.04556,0.00985 0.064998,0.022336 0.00747,0.00629 0.00534,0.012679 -0.00369,0.017663 -0.022379,0.012362 -0.044625,0.025392 -0.068548,0.034411 -0.01294,0.00488 -0.027222,0.00493 -0.040916,0.00686 -0.021157,0.00298 -0.042409,0.00525 -0.063613,0.00787 -0.2134894,0.02251 -0.4283072,0.028297 -0.6427199,0.035864 -0.1347088,0.00461 -0.269452,0.00811 -0.4042114,0.010819 -0.023783,5.875e-4 -0.047578,6.976e-4 -0.07136,0.00129 -0.00342,8.47e-5 -0.013059,0.00234 -0.010257,3.751e-4 0.055506,-0.038881 0.040382,-0.034041 0.087358,-0.033364 0.1644491,-1.847e-4 0.3286685,-0.011905 0.4927057,-0.022496 0.094878,-0.00548 0.1895291,-0.013984 0.2841936,-0.022217 0.028725,-0.0029 0.057623,-0.00219 0.086445,-0.00208 0.025951,0.00173 0.052513,-0.0029 0.078252,0.00154 0.00111,9.422e-4 0.00313,0.00138 0.00332,0.00283 3.456e-4,0.00262 2.891e-4,0.00627 -0.00194,0.0077 -0.018931,0.012179 -0.03906,0.022522 -0.059546,0.031852 -0.00575,0.00262 -0.012341,0.00276 -0.018583,0.00373 -0.022981,0.00358 -0.039968,0.00454 -0.063648,0.00656 -0.087415,0.00609 -0.1750293,0.00689 -0.2626034,0.00543 -0.025613,-4.721e-4 -0.05122,-0.0012 -0.076831,-0.00177 -0.00405,-8.99e-5 -0.0081,-1.193e-4 -0.012141,-2.48e-4 -0.00122,-3.87e-5 -0.00466,4.166e-4 -0.00364,-2.542e-4 0.018018,-0.011895 0.036829,-0.022541 0.055244,-0.033812 0.090823,0.00225 0.181683,0.00251 0.2725292,0.00281 0.090464,5.958e-4 0.1809892,-9.488e-4 0.2713953,0.00328 0.043926,0.00205 0.079601,0.00521 0.1232913,0.00866 0.083026,0.00693 0.165659,0.01765 0.2486846,0.024595 0.00678,4.863e-4 0.013564,0.00101 0.02035,0.00146 0.00517,3.427e-4 0.010344,6.408e-4 0.015519,9.185e-4 0.00348,1.865e-4 0.00697,1.544e-4 0.010435,4.74e-4 8.149e-4,7.51e-5 0.00305,2.772e-4 0.00235,7.046e-4 -0.059232,0.036273 -0.0361,0.03385 -0.077469,0.031385 C 8.8971996,5.3374815 8.7627957,5.3357491 8.6285225,5.3341427 8.4833536,5.3325615 8.3381727,5.33329 8.1930036,5.334417 c -0.046855,6.331e-4 -0.093938,0.00123 -0.1406143,-0.00373 -0.013283,-0.00141 -0.023922,-0.0033 -0.036919,-0.00542 -0.040112,-0.00717 -0.03653,-0.00583 0.027525,-0.040918 0.00363,-0.00199 0.00827,-3.734e-4 0.012406,-4.9e-4 0.00713,-2.008e-4 0.014254,-3.082e-4 0.021381,-4.622e-4 0.08158,-0.00416 0.1632549,-0.00588 0.2449153,-0.00756 0.071577,-0.00185 0.1431179,-0.0023 0.2146627,5.511e-4 0.04746,0.00226 0.094952,0.0036 0.142457,0.00436 0.065962,0.00123 0.1319063,-0.00129 0.1977416,-0.00515 0.058938,-0.00382 0.1179178,-0.00694 0.1769125,-0.00973 0.00492,-2.15e-4 0.00984,-4.299e-4 0.014763,-6.449e-4 0,0 -0.045012,0.032901 -0.045012,0.032901 v 0 c -0.0047,6.15e-5 -0.00939,1.229e-4 -0.014086,1.843e-4 -0.057974,0.00115 -0.1159017,0.00379 -0.1737635,0.00759 -0.066566,0.00399 -0.1332205,0.00706 -0.1999282,0.00628 -0.04741,-4.268e-4 -0.094797,-0.00161 -0.1421136,-0.00482 -0.017978,-8.925e-4 -0.040934,-0.00214 -0.058783,-0.00258 -0.051009,-0.00127 -0.1020496,1.544e-4 -0.15306,3.883e-4 -0.082879,0.00141 -0.1657932,0.00351 -0.2484345,0.01035 -0.00756,6.009e-4 -0.015137,9.428e-4 -0.022668,0.0018 -0.00435,4.963e-4 -0.016012,0.00537 -0.01293,0.00226 0.041116,-0.041434 0.029628,-0.033016 0.063389,-0.02608 0.012903,0.00246 0.021905,0.00435 0.035231,0.00609 0.04504,0.00588 0.090586,0.00608 0.1359228,0.0065 0.1432828,0.00143 0.2865658,0.00287 0.4298522,0.00389 0.1377965,0.00132 0.2755987,0.00225 0.4133722,0.00523 0.00754,-5.75e-5 0.025774,-0.00703 0.02263,-1.726e-4 -0.01825,0.039815 -0.025556,0.034056 -0.047225,0.031758 -0.038777,-0.00411 0.013192,0.00158 -0.034247,-0.00366 C 8.9353276,5.333682 8.8545308,5.321955 8.7732343,5.3147 8.7272153,5.3108 8.6974073,5.3079 8.6509852,5.30556 8.5605832,5.30101 8.4700543,5.30236 8.3795824,5.30248 c -0.093797,3.311e-4 -0.1876573,1.966e-4 -0.2813927,0.00391 0.012737,-0.011043 0.025107,-0.022524 0.038211,-0.033129 5.129e-4,-4.152e-4 0.0012,6.156e-4 0.00185,7.046e-4 0.00363,4.933e-4 0.00728,7.595e-4 0.010928,0.00103 0.024576,0.00185 0.049222,0.00263 0.073834,0.00381 0.087496,0.00278 0.1751163,0.00198 0.2623605,-0.00604 0.025413,-0.00287 0.041501,-0.00398 0.065886,-0.00913 0.00657,-0.00139 0.024239,-0.00998 0.019445,-0.00528 -0.019393,0.019031 -0.055943,0.020234 -0.032117,0.02599 3.989e-4,9.64e-5 -6.553e-4,-4.941e-4 -9.83e-4,-7.411e-4 -0.025055,-0.00406 -0.050852,-6.778e-4 -0.076088,-0.00193 -0.028593,1.602e-4 -0.057186,5.404e-4 -0.085747,0.00203 -0.091065,0.00431 -0.1820839,0.00954 -0.27314,0.014034 -0.05461,0.00306 -0.1319074,0.00734 -0.1858826,0.010621 -0.088118,0.00536 -0.1761906,0.011657 -0.2643511,0.016309 -0.017309,9.134e-4 -0.034632,0.00153 -0.051948,0.00229 -0.010755,6.036e-4 -0.032595,0.012578 -0.032266,0.00181 0.00121,-0.039624 0.037916,-0.032314 0.058786,-0.031911 0.023987,4.632e-4 0.025342,4.317e-4 0.051502,7.629e-4 0.1309599,0.00122 0.2619362,4.448e-4 0.3928676,-0.00269 0.2167427,-0.00598 0.4341227,-0.012145 0.6492426,-0.041258 0.022348,-0.00359 0.044797,-0.00661 0.067045,-0.010784 0.0147,-0.00276 0.030767,-0.017431 0.043743,-0.00999 0.00965,0.00553 -0.018703,0.012183 -0.026987,0.019597 -0.00244,0.00219 0.018137,-0.00501 0.00804,-0.0072 -0.01834,-0.011901 -0.040046,-0.017364 -0.061069,-0.022351 -0.06298,-0.012315 -0.126657,-0.014038 -0.1907023,-0.012172 -0.1230981,0.00287 -0.2461873,0.00954 -0.3682476,0.026549 -0.078874,0.011032 -0.157509,0.023054 -0.2361561,0.035595 -0.071197,0.011353 -0.1424933,0.022294 -0.2131025,0.036999 -0.070099,0.015647 -0.1409069,0.030583 -0.2079942,0.056805 0.014285,-0.011582 0.02824,-0.023582 0.042854,-0.034746 0.00154,-0.00118 0.00361,-0.0014 0.00541,-0.00212 0.00389,-0.00155 0.00777,-0.00313 0.011661,-0.00468 0.021312,-0.00854 0.042529,-0.01732 0.06403,-0.025381 0.031026,-0.010933 0.039673,-0.014507 0.072794,-0.023753 0.081445,-0.022736 0.1651548,-0.03637 0.2491822,-0.04508 0.032341,-0.00257 0.06463,-0.0059 0.097022,-0.00771 0.1375326,-0.00768 0.2752688,-0.00536 0.4128759,-0.00183 0.057079,0.00146 0.1141605,0.00294 0.1712134,0.0052 0.054819,0.00217 0.1095921,0.00537 0.1643881,0.00806 0.1403869,0.00704 0.2807657,0.014373 0.4212119,0.020162 0.029039,0.0012 0.058089,0.0021 0.087129,0.00326 0.017976,7.223e-4 0.036003,7.62e-4 0.053919,0.0024 0.00861,7.891e-4 0.016984,0.00325 0.025477,0.00487 -0.016114,0.010471 -0.031356,0.022428 -0.048342,0.031414 -0.00347,0.00184 -0.00784,2.861e-4 -0.011768,3.868e-4 -0.00657,1.684e-4 -0.013133,3.316e-4 -0.0197,4.205e-4 -0.037947,5.131e-4 -0.075903,5.568e-4 -0.1138366,0.00187 -0.1649586,0.00507 -0.3297819,0.013528 -0.4945791,0.022316 -0.1259754,0.00597 -0.2520168,0.01201 -0.3776701,0.023009 0.013862,-0.011253 0.027109,-0.02331 0.041587,-0.033759 0.00132,-9.536e-4 0.00325,2.021e-4 0.00488,2.193e-4 0.004,4.22e-5 0.008,-5.1e-6 0.012005,-4.11e-5 0.023383,-2.104e-4 0.046761,-7.824e-4 0.070139,-0.00131 0.1174297,-0.00312 0.2348253,-0.00757 0.3522933,-0.00915 0.1625563,-0.00358 0.3251018,-0.00838 0.4876952,-0.00963 0.044371,-3.35e-4 0.088768,-0.00101 0.1331416,-7.533e-4 0.00665,3.85e-5 0.013316,-2.079e-4 0.01994,3.478e-4 0.00395,3.312e-4 0.014452,-5.123e-4 0.011663,0.0023 -0.013523,0.013653 -0.031337,0.022252 -0.047005,0.033379 -0.025567,0.00266 -0.051344,0.0033 -0.076989,0.00482 -0.051647,8.686e-4 -0.1032814,-2.344e-4 -0.1549128,-0.00165 -0.07744,-0.00194 -0.1548807,-0.00314 -0.2323499,-0.00234 -0.06287,2.53e-4 -0.1257804,9.05e-5 -0.1886099,0.00256 -0.00332,2.949e-4 -0.012498,0.00305 -0.00996,8.846e-4 0.013502,-0.011545 0.029896,-0.019265 0.044036,-0.030019 7.405e-4,-5.633e-4 -0.00275,-0.00146 -0.00197,-0.00197 5.35e-5,-3.56e-5 0.015278,0.00479 0.016075,0.00431 0.017006,0.00383 0.034272,0.0065 0.051623,0.00818 0.023105,8.946e-4 0.046245,3.093e-4 0.069362,3.12e-4 0.028303,-2.394e-4 0.056607,-6.683e-4 0.084888,-0.00185 0.032315,-0.00131 0.064622,-0.00233 0.09697,-0.00157 0.042508,2.045e-4 0.085016,3.345e-4 0.1275244,2.707e-4 0.036761,-2.63e-5 0.073533,1.7e-6 0.1102811,-0.00109 0,0 -0.046734,0.033954 -0.046734,0.033954 z"
       id="path3758"
       style="fill:#d1d100;fill-opacity:1" />
    <path
       inkscape:connector-curvature="0"
       d="m 10.33576,5.2775382 c 0.01334,0.00392 0.02689,0.00679 0.04065,0.00872 0.0096,0.00127 0.01938,0.00148 0.02909,0.00153 0.0078,2e-7 0.01568,-4.69e-5 0.02353,-6.97e-5 0.0078,-2e-5 0.01557,-2.27e-5 0.02336,-2.47e-5 0.0079,6.9e-6 0.01591,-2.32e-5 0.02386,2.66e-5 0.0095,1.15e-5 0.01907,1.41e-5 0.0286,5.38e-5 0.01023,-1.92e-5 0.02047,3e-7 0.03071,-1.92e-5 0.0098,3.72e-5 0.01953,-8.3e-6 0.02929,-3.26e-5 0.0081,-1.99e-5 0.0162,-2.49e-5 0.02431,-2.78e-5 0.0078,-1.9e-6 0.0156,-1.4e-6 0.0234,-1.2e-6 0.0093,1.98e-5 0.01862,7.59e-5 0.02793,6.59e-5 0.0089,-2.09e-5 0.01773,-4.38e-5 0.02659,-5.58e-5 0.0082,-7.634e-4 0.01594,7.996e-4 0.02391,0.00215 0.0073,3.545e-4 0.01404,0.0031 0.02116,0.00443 0.0064,0.0013 0.01248,0.00351 0.01902,0.00438 0.02604,0.00253 0.01604,-0.00153 -0.04262,0.034864 -0.0013,8.174e-4 -0.0031,-8.97e-5 -0.0046,-1.226e-4 -0.0023,-4.87e-5 -0.0046,-8.14e-5 -0.0069,-1.221e-4 -0.02505,-4.431e-4 -0.0501,-4.628e-4 -0.07515,-3.951e-4 -0.02125,3.16e-5 -0.0425,1.569e-4 -0.06375,2.264e-4 -0.04258,-3.811e-4 -0.04086,0.00863 0.02136,-0.033749 0.01345,-0.00243 0.02698,-0.00458 0.04028,-0.00781 0.01346,-0.00374 0.02721,-0.006 0.0411,-0.00722 0.01065,-6.18e-4 0.02132,-5.589e-4 0.03198,-5.766e-4 0.0086,-2.5e-6 0.01711,1.13e-5 0.02567,1.78e-5 0.0067,-2.052e-4 0.01339,3.514e-4 0.02005,-1.484e-4 -0.01643,0.011415 -0.03237,0.023574 -0.04929,0.034246 -0.0013,8.458e-4 -0.0032,-1.22e-4 -0.0047,-1.634e-4 -0.0025,-6.49e-5 -0.005,-1.138e-4 -0.0075,-1.553e-4 -0.01099,-1.838e-4 -0.02198,-2.149e-4 -0.03297,-2.535e-4 -0.02369,6.355e-4 -0.04717,0.00425 -0.07014,0.00994 -0.02416,0.0068 -0.04774,0.015825 -0.07122,0.024718 -0.01104,0.00507 -0.02331,0.00706 -0.03445,0.011812 -0.0016,6.931e-4 -0.0061,0.00354 -0.0046,0.00266 0.0159,-0.00913 0.03178,-0.018279 0.04767,-0.027419 -1.74e-4,-5.955e-4 -0.0011,-0.00149 -5.22e-4,-0.00179 1.89e-4,-1.025e-4 0.01853,0.0027 0.02081,0.00292 0.01119,0.00105 0.0176,0.00123 0.02902,0.0018 0.02784,0.00105 0.05571,0.00104 0.08357,9.408e-4 0.01544,-0.00142 0.03163,0.0019 0.04689,-0.00118 -0.01638,0.00925 -0.03275,0.018492 -0.04913,0.027738 -2.76e-4,8.163e-4 3.4e-5,0.00242 -8.27e-4,0.00245 -0.0023,8.51e-5 -0.0042,-0.00152 -0.0064,-0.00218 -0.0034,-0.00103 -0.0069,-0.00191 -0.01026,-0.00288 -0.01968,-0.0056 -0.0075,-0.00245 -0.02893,-0.00753 -0.03603,-0.00881 -0.0722,-0.01698 -0.1082,-0.025886 -0.02149,-0.00517 -0.04321,-0.00949 -0.06524,-0.011441 -0.02544,-0.00178 -0.01434,0.00111 0.04176,-0.034785 2.44e-4,-1.56e-4 0.02114,7.393e-4 0.02345,7.863e-4 0.02993,2.184e-4 0.05984,0.00209 0.08957,0.0056 0.01068,0.0013 0.02133,0.00278 0.03203,0.00391 0.0057,6.036e-4 0.01158,0.00162 0.01731,8.211e-4 -0.05178,0.033156 -0.03308,0.038717 -0.05517,0.026942 -0.0036,-0.00193 -0.0071,-0.00322 -0.01035,-0.00578 -0.01536,-0.038266 0.05293,-0.035401 0.0741,-0.035497 0.01638,-3.86e-5 0.03276,1.13e-5 0.04914,-5.37e-5 0.0116,-8.029e-4 0.023,0.00113 0.03445,0.00255 0.0082,9.761e-4 0.01649,0.00113 0.02475,0.00124 0.0099,0.0013 0.01966,0.0026 0.02936,0.00487 0.0068,0.00205 0.01404,0.00172 0.02097,0.00293 -0.04411,0.036258 -0.03104,0.034188 -0.05901,0.034015 0,0 0.04673,-0.033983 0.04673,-0.033983 v 0 c 0.0258,-3.901e-4 0.02975,-0.010063 -0.03549,0.033472 -0.0069,-0.0011 -0.01387,-0.0017 -0.02063,-0.00357 -0.0094,-0.00207 -0.01906,-0.00329 -0.02868,-0.0039 -0.0084,-1.741e-4 -0.01682,-5.006e-4 -0.02514,-0.00177 -0.01116,-0.00157 -0.0223,-0.00284 -0.0336,-0.00225 -0.01631,-1.384e-4 -0.03262,-2.157e-4 -0.04893,2.7e-5 -0.0068,1.786e-4 -0.01405,-1.187e-4 -0.02076,0.00127 -0.0012,2.439e-4 -0.0044,0.00185 -0.0034,0.00118 0.04678,-0.03117 0.06139,-0.018416 0.04531,-0.031513 0.003,0.00223 0.0064,0.00359 0.0096,0.00537 0.02477,0.013598 -0.0018,0.016412 -0.04012,0.038552 -0.01605,-0.00198 -0.03206,-0.00424 -0.04806,-0.00653 -0.02972,-0.00346 -0.05962,-0.0055 -0.08956,-0.00481 -0.0027,4.27e-5 -0.01619,2.174e-4 -0.02005,4.153e-4 -0.0016,8.02e-5 -0.0059,0.00143 -0.0047,4.369e-4 0.04626,-0.037669 0.02758,-0.036346 0.05183,-0.033114 0.0216,0.00293 0.04281,0.00801 0.06394,0.013272 0.03596,0.00917 0.07212,0.017535 0.108319,0.025674 0.02084,0.0047 0.01054,0.00224 0.02986,0.0071 0.0013,3.203e-4 0.016,0.0037 0.01855,0.00533 0.0024,0.00151 0.0081,0.00424 0.0059,0.006 -0.0153,0.012298 -0.0338,0.019985 -0.0507,0.029977 -0.01538,3.468e-4 -0.03077,-3.001e-4 -0.04615,-1.668e-4 -0.02768,-2.478e-4 -0.05537,-5.911e-4 -0.08304,-0.00162 -0.01,-4.356e-4 -0.01995,-7.599e-4 -0.02993,-0.0016 -0.0069,-5.779e-4 -0.01935,-4.661e-4 -0.02497,-0.00597 -0.0014,-0.00132 -0.0018,-0.0033 -0.0028,-0.00494 0.01692,-0.010441 0.0337,-0.02113 0.05077,-0.031323 0.0015,-8.715e-4 0.01092,-0.00382 0.01154,-0.00402 0.0089,-0.00294 0.01793,-0.00581 0.02673,-0.00918 0.02372,-0.00864 0.04726,-0.018101 0.07177,-0.024256 0.02327,-0.00519 0.04693,-0.00859 0.07082,-0.00882 0.01122,-3.89e-5 0.02245,-7.37e-5 0.03367,-2.53e-4 0.02816,-4.498e-4 0.02814,-0.00683 -0.0319,0.033927 -0.0065,-6.227e-4 -0.0131,1.366e-4 -0.01961,-1.806e-4 -0.0085,-2.78e-5 -0.017,-8.05e-5 -0.02551,-1.146e-4 -0.01053,-6.9e-6 -0.02108,-4.5e-6 -0.03157,9.533e-4 -0.01357,0.00142 -0.02694,0.00401 -0.04014,0.00745 -0.01383,0.00307 -0.02783,0.00606 -0.04193,0.00741 0.01461,-0.011375 0.02895,-0.023115 0.04384,-0.034126 5.7e-4,-4.218e-4 0.0014,1.086e-4 0.0021,1.331e-4 0.0015,5.14e-5 0.003,7.43e-5 0.0045,9.44e-5 0.007,9.43e-5 0.01407,8.02e-5 0.0211,1.517e-4 0.02102,7.53e-5 0.04204,2.134e-4 0.06306,2.752e-4 0.02537,1.066e-4 0.05074,1.548e-4 0.0761,-3.38e-4 0.0024,-6.68e-5 0.0048,-1.033e-4 0.0072,-2.004e-4 0.0016,-6.51e-5 0.0061,-0.00133 0.0048,-2.861e-4 -0.03938,0.033149 -0.0275,0.036362 -0.05158,0.032794 -0.0065,-0.00127 -0.01266,-0.00354 -0.01918,-0.0046 -0.0069,-0.00166 -0.01378,-0.00367 -0.02093,-0.00429 -0.0077,-0.00129 -0.01547,-0.00171 -0.02333,-0.00138 -0.0088,-1.2e-5 -0.01762,-3.49e-5 -0.02644,-5.58e-5 -0.0094,-1.01e-5 -0.01874,4.64e-5 -0.02811,6.59e-5 -0.0078,2e-7 -0.0156,7e-7 -0.0234,-1.2e-6 -0.0081,-2.9e-6 -0.01615,-7.8e-6 -0.02423,-2.78e-5 -0.0097,-2.44e-5 -0.01947,-6.99e-5 -0.0292,-3.26e-5 -0.01022,-1.95e-5 -0.02044,0 -0.03065,-1.93e-5 -0.0096,3.94e-5 -0.01916,4.21e-5 -0.02875,5.3e-5 -0.008,4.88e-5 -0.01596,1.9e-5 -0.02393,3.03e-5 -0.0078,5e-6 -0.01557,1.32e-5 -0.02335,3.92e-5 -0.0079,2.49e-5 -0.0157,8.08e-5 -0.02355,-4.67e-5 -0.0098,-2.474e-4 -0.01952,-8.295e-4 -0.02916,-0.00247 -0.01398,-0.00241 -0.02777,-0.00569 -0.04157,-0.00894 0,0 0.04779,-0.03273 0.04779,-0.03273 z"
       id="path3760"
       style="fill:#d1d100;fill-opacity:1" />
    <path
       inkscape:connector-curvature="0"
       d="m 10.753705,5.2954958 c 0.01093,1.435e-4 0.02176,-0.00197 0.03264,-0.00299 0.0085,-7.437e-4 0.01696,-8.591e-4 0.02545,-9.218e-4 0.0078,-2.98e-5 0.01562,-7.6e-6 0.02343,2.3e-6 0.0078,9.8e-6 0.0156,1.22e-5 0.02341,1.37e-5 0.0013,1e-7 0.0026,1.04e-5 0.0039,4e-7 0.001,-7.7e-6 0.002,-2.68e-5 0.003,-5.37e-5 7.54e-4,-2e-5 0.0029,-5.876e-4 0.0023,-1.499e-4 -0.04893,0.034885 -0.02875,0.035014 -0.05128,0.034253 -0.01389,-2.93e-4 -0.02778,-3.193e-4 -0.04167,-3.362e-4 -0.01642,-2.07e-5 -0.03283,-8.7e-6 -0.04925,1.054e-4 -0.03739,-3.242e-4 -0.03336,0.00773 0.02842,-0.033052 0.01423,0.00175 0.02846,0.00322 0.04261,0.00559 0.01434,0.00262 0.0288,0.00427 0.04335,0.00509 0.0089,4.1e-4 0.01772,3.664e-4 0.02658,3.411e-4 0.0077,3.097e-4 0.01555,-8.573e-4 0.02314,7.028e-4 0.0064,8.075e-4 0.0109,0.00568 0.01644,0.00846 8.51e-4,-7.154e-4 0.0058,0.00288 0.0061,0.00263 4.39e-4,-3.355e-4 -8.6e-5,-0.00184 -5.61e-4,-0.00156 -0.05141,0.03057 -0.03374,0.042928 -0.05081,0.030398 -0.0052,-0.00144 -0.0095,-0.00448 -0.01403,-0.00723 -0.0067,-0.00255 -0.0104,-0.00308 -0.01242,-0.010526 0.0339,-0.023817 0.04128,-0.042439 0.06414,-0.022389 8.55e-4,9.87e-4 0.0017,0.002 0.0026,0.00296 0.0078,0.00855 -0.0019,-0.00254 0.0039,0.00444 1.61e-4,1.914e-4 7.67e-4,3.851e-4 5.5e-4,5.085e-4 -0.05201,0.029592 -0.03639,0.040917 -0.05405,0.026805 -0.006,-0.00498 -0.01269,-0.00902 -0.01959,-0.012546 -0.0055,-0.00327 -0.01243,-0.00455 -0.01771,-0.00817 -0.01283,-0.019169 0.03304,-0.040113 0.05226,-0.031767 0.0027,0.00119 0.0051,0.00344 0.0076,0.00502 0.0057,0.00437 0.01269,0.00651 0.01928,0.00926 0.006,0.00188 0.01163,0.00522 0.0163,0.00947 0.0047,0.00288 0.009,0.00638 0.01355,0.0096 0.01831,0.019803 -0.03333,0.027515 -0.04868,0.034528 -8.51e-4,3.889e-4 -0.0034,-0.00544 -0.0035,-0.00558 -0.0017,-0.00452 -0.0048,-0.00822 -0.0071,-0.012361 -7.6e-5,-8.9e-5 -1.53e-4,-1.779e-4 -2.29e-4,-2.668e-4 0.01729,-0.00942 0.03425,-0.019443 0.05186,-0.028245 6.42e-4,-3.209e-4 8.95e-4,0.00113 0.0015,0.0016 1.7e-5,1.47e-5 0.0028,5.928e-4 0.0015,0.00135 -0.01683,0.010034 -0.03413,0.019258 -0.05119,0.028887 -0.0014,-0.00277 -0.0044,-0.00341 -0.0065,-0.00546 -0.0026,-0.00303 -0.0013,-0.00165 -0.0039,-0.00419 -0.0043,-0.00342 -0.0088,-0.00628 -0.01361,-0.00894 -8.41e-4,-3.276e-4 -0.0017,-6.551e-4 -0.0025,-9.826e-4 0,0 0.04835,-0.03206 0.04835,-0.03206 v 0 c 9.56e-4,4.92e-4 0.0019,9.84e-4 0.0029,0.00148 0.005,0.00309 0.01006,0.00611 0.0144,0.010146 0.0034,0.00344 0.0074,0.00602 0.0107,0.00958 -0.01638,0.010318 -0.03291,0.02041 -0.04915,0.030953 -2.25e-4,1.458e-4 6.91e-4,8.115e-4 4.83e-4,6.42e-4 -8.25e-4,-6.735e-4 -0.0031,-0.00171 -0.0022,-0.00231 0.01589,-0.010827 0.03235,-0.020794 0.04853,-0.031191 6e-6,9.51e-5 1.2e-5,1.901e-4 1.8e-5,2.852e-4 0.0012,0.00444 0.0057,0.00793 0.0069,0.012487 1.99e-4,4.641e-4 3.04e-4,9.804e-4 5.96e-4,0.00139 1.28e-4,1.803e-4 7.86e-4,1.763e-4 5.97e-4,2.898e-4 -0.01631,0.00975 -0.03322,0.018504 -0.04921,0.028773 -1.69e-4,1.08e-4 0.0042,0.00356 5.12e-4,2.57e-4 -0.0045,-0.00345 -0.0093,-0.00647 -0.01376,-0.00993 -0.0046,-0.00357 -0.0098,-0.00618 -0.01525,-0.00808 -0.0068,-0.003 -0.01381,-0.00549 -0.01982,-0.00998 -0.0011,-6.946e-4 -0.0035,-0.00231 -0.0049,-0.00288 -0.0013,-5.643e-4 -0.0053,-3.733e-4 -0.0041,-0.00117 0.04799,-0.032111 0.0602,-0.015238 0.04691,-0.032184 0.0056,0.00289 0.01146,0.00522 0.01703,0.00815 0.0071,0.00395 0.01408,0.00812 0.02036,0.013285 0.01745,0.01371 0.004,0.0019 -0.04531,0.033891 -2.32e-4,1.507e-4 -1.49e-4,-8.153e-4 -0.0013,-0.00217 -7.59e-4,-9.094e-4 -0.0016,-0.00172 -0.0024,-0.00258 -7.05e-4,-7.362e-4 -0.0014,-0.00147 -0.0021,-0.0022 -0.0022,-0.0016 -0.0045,-0.00335 -0.0072,-0.00393 -0.0022,-4.64e-4 -0.0029,0.00122 -0.0026,0.00106 0.01608,-0.00971 0.03204,-0.019611 0.04806,-0.029416 -0.0031,-0.00313 -0.0021,-0.00171 -4.81e-4,-9.239e-4 0.0028,0.00134 0.0058,0.00211 0.0084,0.00388 0.0047,0.00296 0.0099,0.00486 0.0146,0.00781 0.01615,0.014395 0.004,0.00251 -0.0456,0.035241 -5.63e-4,3.716e-4 -8.51e-4,-0.00106 -0.0014,-0.0015 -0.0015,-0.00131 -0.0044,-0.00111 -0.0057,-0.00265 -0.0048,-0.00295 -0.0092,-0.00643 -0.01512,-0.00671 -0.0075,-3.955e-4 -0.01507,-6.3e-6 -0.02261,-1.368e-4 -0.0089,-4.16e-5 -0.01771,-1.536e-4 -0.02654,-8.635e-4 -0.01445,-0.00125 -0.02879,-0.00331 -0.04307,-0.00586 -0.01446,-0.00205 -0.02897,-0.00339 -0.0435,-0.00488 0.04792,-0.037366 0.02869,-0.034456 0.06525,-0.033986 0.01632,1.157e-4 0.03264,1.252e-4 0.04896,1.055e-4 0.0142,-1.72e-5 0.0284,-4.92e-5 0.0426,-3.359e-4 0.0221,-6.834e-4 0.0042,-7.021e-4 -0.04301,0.034253 -4.95e-4,3.668e-4 -0.0012,-1.327e-4 -0.0018,-1.505e-4 -9.66e-4,-2.79e-5 -0.0019,-4.66e-5 -0.0029,-5.45e-5 -0.0013,-1.05e-5 -0.0026,-5e-7 -0.0039,-8e-7 -0.0078,-2.4e-6 -0.01561,-6.7e-6 -0.02341,-1.68e-5 -0.0078,-8.6e-6 -0.01558,-3.1e-5 -0.02338,4.91e-5 -0.0084,1.278e-4 -0.0167,3.704e-4 -0.02501,0.00122 -0.01103,0.00113 -0.02204,0.00279 -0.03316,0.00267 0,0 0.04681,-0.034008 0.04681,-0.034008 z"
       id="path3762"
       style="fill:#d1d100;fill-opacity:1" />
    <path
       inkscape:connector-curvature="0"
       d="m 7.5975589,5.3276204 c -0.044551,-0.00728 -0.089814,-0.00977 -0.1348439,-0.012369 -0.042588,-0.00225 -0.085236,-0.00284 -0.127875,-0.00301 -0.020083,1.86e-5 -0.040165,1.069e-4 -0.060248,1.814e-4 -0.015322,-7e-7 -0.030644,9.08e-5 -0.045966,2.008e-4 0,0 0.043352,-0.031501 0.043352,-0.031501 v 0 c 0.015183,9.2e-5 0.030366,1.514e-4 0.04555,9.46e-5 0.019842,7.8e-6 0.039686,-5.6e-6 0.059524,4.384e-4 0.041936,9.242e-4 0.08384,0.00284 0.1257366,0.00483 0.046192,0.0026 0.092379,0.00556 0.1384377,0.00996 0,0 -0.043668,0.031175 -0.043667,0.031175 z"
       id="path3764"
       style="fill:#d1d100;fill-opacity:1" />
    <path
       inkscape:connector-curvature="0"
       d="m 7.1814493,5.3283705 c -0.013751,-5.34e-4 -0.027537,4.078e-4 -0.041249,-7.843e-4 -0.010438,-0.00122 -0.020792,-0.00359 -0.031024,-0.00602 -5.614e-4,-2.688e-4 -0.00136,-2.742e-4 -0.00168,-8.063e-4 -0.012794,-0.021081 0.031211,-0.023878 0.047862,-0.031885 9.284e-4,-4.465e-4 0.016746,9.78e-5 0.018129,1.015e-4 0.016206,2.22e-5 0.032413,7.33e-5 0.048619,2.86e-5 0.012251,-7e-6 0.024503,-1.441e-4 0.036754,-8e-5 0.012119,9.671e-4 0.023899,0.00402 0.035886,0.00591 0.010978,0.0015 0.022071,0.00173 0.033133,0.00186 0.00845,4.89e-5 0.016898,-5.9e-6 0.025347,-3.22e-5 0.00857,-2.29e-5 0.017146,1.18e-5 0.025719,1.3e-6 0.00289,-2.43e-5 0.00577,1.07e-5 0.00866,-1.3e-5 0.00147,-1.22e-5 0.00561,-0.00104 0.00441,-1.809e-4 -0.045384,0.032722 -0.02691,0.032704 -0.04879,0.0319 -0.022234,-4.408e-4 -0.044474,-5.717e-4 -0.066712,-6.6e-4 -0.027518,-7.53e-5 -0.055036,4.95e-5 -0.082553,3.196e-4 -0.01158,6.972e-4 -0.022838,2.754e-4 -0.034207,-0.00183 -0.00722,-6.224e-4 -0.013328,-0.00453 -0.019924,-0.00706 -0.00678,-0.00252 -0.013524,-0.00458 -0.020707,-0.00559 -0.00704,-9.763e-4 -0.013744,-0.00322 -0.020864,-0.00398 -0.00914,-7.768e-4 -0.018328,-7.927e-4 -0.027498,-8.235e-4 -0.00528,8.357e-4 -0.011673,-0.00154 -0.01672,8.023e-4 -8.29e-4,3.849e-4 -0.00286,0.00226 -0.00206,0.00181 0.015078,-0.00851 0.029969,-0.017343 0.044954,-0.026014 -0.00183,8.531e-4 0.00896,0.011387 0.01009,0.012512 0.0183,0.018948 -0.027887,0.045053 -0.048052,0.034582 -0.00535,-0.00223 -0.010861,-0.00436 -0.015837,-0.00737 -0.00521,-0.00277 -0.010807,-0.00489 -0.015842,-0.00797 -0.00388,-0.00299 -0.00551,-0.00719 -0.00687,-0.011712 0,0 0.047523,-0.025863 0.047523,-0.025863 v 0 c 8.151e-4,0.00327 0.00165,0.00619 0.00472,0.00802 0.00528,0.00264 0.010568,0.00523 0.015809,0.00794 0.00498,0.00241 0.00996,0.00488 0.01532,0.00633 0.00105,-5.58e-5 0.00392,-0.00138 0.00303,-8.202e-4 -0.014967,0.00939 -0.030139,0.018452 -0.044979,0.028038 -3.087e-4,1.995e-4 7.319e-4,5.227e-4 0.00105,3.379e-4 0.00111,-6.487e-4 -0.00253,-0.00499 -0.00189,-0.00337 -0.00532,-0.00554 -0.011972,-0.011014 -0.013771,-0.018748 0.04412,-0.027642 0.034119,-0.030855 0.067086,-0.030095 0.00934,1.154e-4 0.018714,1.503e-4 0.028001,0.00128 0.00707,0.0011 0.013881,0.0033 0.020998,0.00413 0.00737,0.00146 0.01445,0.00384 0.021463,0.00653 0.00622,0.00273 0.012354,0.0055 0.019223,0.00616 0.010829,0.00192 0.021741,0.00168 0.032716,0.00171 0.027224,2.747e-4 0.054449,3.94e-4 0.081674,3.194e-4 0.022844,-8.97e-5 0.04569,-2.276e-4 0.06853,-6.605e-4 0.021533,-7.191e-4 0.0058,-9.174e-4 -0.03902,0.0319 -4.326e-4,3.168e-4 -0.00801,-1.839e-4 -0.00817,-1.841e-4 -0.00145,-1.5e-6 -0.00291,-2.6e-6 -0.00437,-3.9e-6 -0.0086,-2.4e-6 -0.017194,4.3e-5 -0.025791,6.22e-5 -0.00843,9.9e-6 -0.016852,2.89e-5 -0.025276,-1.694e-4 -0.011187,-3.28e-4 -0.022406,-8.076e-4 -0.033472,-0.00259 -0.011719,-0.00211 -0.023388,-0.00497 -0.035353,-0.00519 -0.012159,5.7e-5 -0.024317,-9.03e-5 -0.036476,-1.272e-4 -0.016212,-8.01e-5 -0.032425,-9.95e-5 -0.048637,4.04e-5 -0.035376,6.123e-4 -0.017127,0.00701 0.025758,-0.025037 0.00375,-0.00281 -0.00651,-0.00576 -0.00239,-0.00449 0.0098,0.00259 0.019788,0.00487 0.029905,0.00564 0.013823,6.682e-4 0.027672,3.077e-4 0.041506,1.502e-4 0,0 -0.043688,0.031741 -0.043688,0.031741 z"
       id="path3766"
       style="fill:#d1d100;fill-opacity:1" />
  </g>
</svg>
